<svg id="maximize" xmlns="http://www.w3.org/2000/svg" viewBox="0 0 512 512"><defs><style>.cls-1{fill:#2e3192;}</style></defs><g id="arrow"><path id="arrow-2" data-name="arrow" class="cls-1" d="M464.84,512h-90a23.61,23.61,0,0,1-23.61-23.61h0a23.61,23.61,0,0,1,23.61-23.6h52.47L321.55,359a23.62,23.62,0,0,1,0-33.38h0a23.62,23.62,0,0,1,33.38,0L464.79,435.46V373.05a23.61,23.61,0,0,1,23.6-23.61h0A23.62,23.62,0,0,1,512,373.05V511.94Z"/><path id="arrow-3" data-name="arrow" class="cls-1" d="M0,511.94V373.05a23.62,23.62,0,0,1,23.61-23.61h0a23.61,23.61,0,0,1,23.6,23.61v62.41L157.07,325.61a23.62,23.62,0,0,1,33.38,0h0a23.62,23.62,0,0,1,0,33.38L84.65,464.79h52.47a23.61,23.61,0,0,1,23.61,23.6h0A23.61,23.61,0,0,1,137.12,512h-90Z"/><path id="arrow-4" data-name="arrow" class="cls-1" d="M.06,0H139a23.62,23.62,0,0,1,23.61,23.61h0A23.61,23.61,0,0,1,139,47.21H76.54L186.39,157.07a23.62,23.62,0,0,1,0,33.38h0a23.62,23.62,0,0,1-33.38,0L47.21,84.65v52.47a23.61,23.61,0,0,1-23.6,23.61h0A23.61,23.61,0,0,1,0,137.12v-90Z"/><path id="arrow-5" data-name="arrow" class="cls-1" d="M512,.06V139a23.62,23.62,0,0,1-23.61,23.61h0A23.61,23.61,0,0,1,464.79,139V76.54L354.93,186.39a23.62,23.62,0,0,1-33.38,0h0a23.62,23.62,0,0,1,0-33.38l105.8-105.8H374.88a23.61,23.61,0,0,1-23.61-23.6h0A23.61,23.61,0,0,1,374.88,0h90Z"/></g></svg>